<svg width="60" height="60" viewBox="0 0 60 60" fill="none" xmlns="http://www.w3.org/2000/svg">
<rect width="60" height="60" rx="17" fill="url(#paint0_linear_690_435)"/>
<path d="M19.0514 36.0271C19.5822 36.73 19.4181 37.7461 18.6165 38.1112C17.5113 38.6146 16.3089 38.9127 15.0745 38.9835C13.2912 39.0859 11.5136 38.7098 9.9457 37.8984C8.37781 37.087 7.08321 35.8732 6.21051 34.3963C5.33782 32.9194 4.9224 31.2393 5.01194 29.5489C5.10148 27.8585 5.69236 26.2263 6.71674 24.8396C7.74112 23.4529 9.15748 22.368 10.8032 21.7094C12.449 21.0507 14.2574 20.8451 16.021 21.1161C17.2348 21.3026 18.3935 21.7097 19.4354 22.3098C20.2039 22.7525 20.2662 23.7876 19.6629 24.4376V24.4376C19.1035 25.0403 18.1758 25.0801 17.4401 24.7129C16.8388 24.4128 16.1873 24.2053 15.5099 24.1012C14.3389 23.9212 13.1382 24.0578 12.0454 24.4951C10.9526 24.9324 10.0122 25.6528 9.33199 26.5735C8.65181 27.4943 8.25947 28.5781 8.20002 29.7005C8.14056 30.8229 8.4164 31.9385 8.99586 32.9191C9.57532 33.8997 10.4349 34.7057 11.476 35.2444C12.517 35.7832 13.6974 36.0329 14.8815 35.965C15.5701 35.9255 16.2438 35.7794 16.8768 35.5355C17.6414 35.2408 18.5576 35.3732 19.0514 36.0271V36.0271Z" fill="white"/>
<path d="M47.2993 37.8162C47.5458 38.1607 47.4675 38.6507 47.0719 38.802C46.788 38.9106 46.4878 38.9759 46.1814 38.9945C45.6183 39.0286 45.0569 38.9033 44.5618 38.6328C44.0667 38.3623 43.6579 37.9577 43.3823 37.4654C43.1067 36.9731 42.9755 36.4131 43.0038 35.8496C43.032 35.2862 43.2186 34.7421 43.5421 34.2799C43.8656 33.8176 44.3129 33.456 44.8326 33.2365C45.3523 33.0169 45.9234 32.9484 46.4803 33.0387C46.7833 33.0878 47.0754 33.1829 47.347 33.3194C47.7254 33.5096 47.7543 34.0049 47.4746 34.323V34.323C47.195 34.641 46.7041 34.6459 46.2888 34.5624C46.2709 34.5588 46.2529 34.5556 46.2348 34.5526C45.9626 34.5085 45.6834 34.542 45.4294 34.6493C45.1754 34.7566 44.9568 34.9333 44.7987 35.1593C44.6406 35.3852 44.5494 35.6511 44.5356 35.9265C44.5217 36.2019 44.5859 36.4756 44.7206 36.7162C44.8553 36.9569 45.0551 37.1546 45.2971 37.2868C45.5391 37.419 45.8134 37.4803 46.0887 37.4636C46.107 37.4625 46.1252 37.461 46.1435 37.4592C46.565 37.4178 47.0529 37.4718 47.2993 37.8162V37.8162Z" fill="white"/>
<path d="M27 35.5C27 37.433 25.433 39 23.5 39C21.567 39 20 37.433 20 35.5C20 33.567 21.567 32 23.5 32C25.433 32 27 33.567 27 35.5ZM21.652 35.5C21.652 36.5206 22.4794 37.348 23.5 37.348C24.5206 37.348 25.348 36.5206 25.348 35.5C25.348 34.4794 24.5206 33.652 23.5 33.652C22.4794 33.652 21.652 34.4794 21.652 35.5Z" fill="white"/>
<path d="M27 35.5C27 37.433 25.433 39 23.5 39C21.567 39 20 37.433 20 35.5C20 33.567 21.567 32 23.5 32C25.433 32 27 33.567 27 35.5ZM21.652 35.5C21.652 36.5206 22.4794 37.348 23.5 37.348C24.5206 37.348 25.348 36.5206 25.348 35.5C25.348 34.4794 24.5206 33.652 23.5 33.652C22.4794 33.652 21.652 34.4794 21.652 35.5Z" fill="white"/>
<path d="M28.8768 37.7506C28.7392 38.358 28.1007 38.7293 27.5998 38.3592C27.3483 38.1734 27.1174 37.9505 26.9136 37.6949C26.4559 37.1212 26.1542 36.4077 26.0453 35.6414C25.9364 34.8751 26.0249 34.0891 26.3001 33.3794C26.4252 33.0569 26.5863 32.7564 26.7784 32.4849C27.1398 31.9742 27.8675 32.1239 28.1763 32.6679V32.6679C28.4362 33.1259 28.2806 33.7061 28.0708 34.189C28.0604 34.2128 28.0506 34.2368 28.0411 34.2611C27.9156 34.5847 27.8753 34.9431 27.9249 35.2924C27.9746 35.6418 28.1121 35.9671 28.3208 36.2287V36.2287C28.6579 36.6512 29.0071 37.1756 28.8877 37.7028L28.8768 37.7506Z" fill="white"/>
<rect x="30" y="21" width="3" height="18" rx="1.5" fill="white"/>
<rect x="49" y="30" width="2" height="9" rx="1" fill="white"/>
<path d="M30.9038 30.3891C31.8128 31.1583 32.971 31.6821 34.2319 31.8943C35.4928 32.1065 36.7997 31.9976 37.9874 31.5813C39.1752 31.1651 40.1903 30.4601 40.9046 29.5556C41.6188 28.6512 42 27.5878 42 26.5C42 25.4122 41.6188 24.3488 40.9046 23.4444C40.1903 22.5399 39.1752 21.8349 37.9874 21.4187C36.7997 21.0024 35.4928 20.8935 34.2319 21.1057C32.971 21.3179 31.8128 21.8417 30.9038 22.6109L32.8668 24.2719C33.3876 23.8312 34.0511 23.5311 34.7735 23.4095C35.4959 23.2879 36.2446 23.3503 36.9251 23.5888C37.6056 23.8273 38.1872 24.2312 38.5964 24.7494C39.0055 25.2676 39.224 25.8768 39.224 26.5C39.224 27.1232 39.0055 27.7324 38.5964 28.2506C38.1872 28.7688 37.6056 29.1727 36.9251 29.4112C36.2446 29.6497 35.4959 29.7121 34.7735 29.5905C34.0511 29.4689 33.3876 29.1688 32.8668 28.7281L30.9038 30.3891Z" fill="white"/>
<rect x="40" y="34" width="2" height="5" rx="1" fill="white"/>
<circle cx="41" cy="32" r="1" fill="white"/>
<path d="M50.4064 34.8749C50.0608 35.1514 50.0684 35.6798 50.4855 35.8279C50.5591 35.8541 50.6344 35.8774 50.7112 35.8978C51.0801 35.996 51.4725 36.0239 51.8573 35.9795C52.2421 35.935 52.6086 35.8194 52.9277 35.6418C53.2468 35.4642 53.5098 35.2295 53.6957 34.9563C53.8816 34.6832 53.9853 34.3791 53.9985 34.0683C54.0118 33.7575 53.9343 33.4485 53.7722 33.1658C53.61 32.8832 53.3677 32.6347 53.0645 32.44C52.9144 32.3437 52.7515 32.2619 52.5791 32.1959C52.2749 32.0795 51.9608 32.2853 51.8762 32.5999L51.8056 32.8628C51.7472 33.0801 51.8966 33.2942 52.086 33.4157V33.4157C52.1995 33.4886 52.2903 33.5817 52.351 33.6876C52.4118 33.7934 52.4408 33.9092 52.4358 34.0256C52.4308 34.142 52.392 34.2559 52.3224 34.3582C52.2527 34.4605 52.1543 34.5484 52.0347 34.6149C51.9152 34.6814 51.7779 34.7248 51.6338 34.7414C51.4897 34.758 51.3427 34.7476 51.2046 34.7108V34.7108C50.9718 34.6489 50.7043 34.6366 50.5163 34.787L50.4064 34.8749Z" fill="white"/>
<path d="M50.4274 36.4092C50.1914 36.0721 50.2733 35.6075 50.6104 35.3714V35.3714C50.9475 35.1354 51.4122 35.2173 51.6482 35.5544L53.184 37.7478C53.4201 38.0849 53.3382 38.5496 53.001 38.7856V38.7856C52.6639 39.0217 52.1993 38.9397 51.9632 38.6026L51.1953 37.5059L50.4274 36.4092Z" fill="white"/>
<defs>
<linearGradient id="paint0_linear_690_435" x1="3" y1="8" x2="53.5" y2="57" gradientUnits="userSpaceOnUse">
<stop offset="0.494792" stop-color="#741C1C"/>
<stop offset="1"/>
</linearGradient>
</defs>
</svg>
